{
    "asset" : {
        "generator" : "Khronos glTF Blender I/O v3.3.32",
        "version" : "2.0"
    },
    "scene" : 0,
    "scenes" : [
        {
            "name" : "Scene",
            "nodes" : [
                0
            ]
        }
    ],
    "nodes" : [
        {
            "mesh" : 0,
            "name" : "\u67f1\u4f53"
        }
    ],
    "meshes" : [
        {
            "name" : "\u67f1\u4f53",
            "primitives" : [
                {
                    "attributes" : {
                        "POSITION" : 0,
                        "NORMAL" : 1,
                        "TEXCOORD_0" : 2
                    },
                    "indices" : 3
                }
            ]
        }
    ],
    "accessors" : [
        {
            "bufferView" : 0,
            "componentType" : 5126,
            "count" : 1308,
            "max" : [
                1.0469616651535034,
                0.7579762935638428,
                1.0469616651535034
            ],
            "min" : [
                -1.0469616651535034,
                -2.106217861175537,
                -1.0469616651535034
            ],
            "type" : "VEC3"
        },
        {
            "bufferView" : 1,
            "componentType" : 5126,
            "count" : 1308,
            "type" : "VEC3"
        },
        {
            "bufferView" : 2,
            "componentType" : 5126,
            "count" : 1308,
            "type" : "VEC2"
        },
        {
            "bufferView" : 3,
            "componentType" : 5123,
            "count" : 2292,
            "type" : "SCALAR"
        }
    ],
    "bufferViews" : [
        {
            "buffer" : 0,
            "byteLength" : 15696,
            "byteOffset" : 0,
            "target" : 34962
        },
        {
            "buffer" : 0,
            "byteLength" : 15696,
            "byteOffset" : 15696,
            "target" : 34962
        },
        {
            "buffer" : 0,
            "byteLength" : 10464,
            "byteOffset" : 31392,
            "target" : 34962
        },
        {
            "buffer" : 0,
            "byteLength" : 4584,
            "byteOffset" : 41856,
            "target" : 34963
        }
    ],
    "buffers" : [
        {
            "byteLength" : 46440,
            "uri" : "data:application/octet-stream;base64,"
        }
    ]
}
